<svg xmlns="http://www.w3.org/2000/svg" xmlns:xlink="http://www.w3.org/1999/xlink" viewBox="0 0 430.03 227.68"><defs><style>.cls-1,.cls-2,.cls-4{fill:none;}.cls-2,.cls-4{stroke:#577e73;}.cls-2{stroke-linecap:round;stroke-linejoin:round;}.cls-3{fill:#577e73;}.cls-4{stroke-miterlimit:10;}.cls-5{clip-path:url(#clip-path);}</style><clipPath id="clip-path"><rect class="cls-1" x="650.59" y="19.7" width="747.34" height="452.93" rx="21.82"/></clipPath></defs><title>Wireframes-MC-V-II</title><g id="Capa_1" data-name="Capa 1"><polygon class="cls-2" points="175.85 23.22 170.28 20.87 165.19 24.13 165.7 18.11 161.03 14.27 166.92 12.9 169.13 7.27 172.25 12.45 178.28 12.8 174.32 17.37 175.85 23.22"/><polygon class="cls-2" points="258.71 169.58 253.15 167.23 248.06 170.49 248.57 164.47 243.9 160.63 249.79 159.26 251.99 153.63 255.12 158.81 261.14 159.17 257.19 163.73 258.71 169.58"/><polygon class="cls-2" points="152.53 60.46 143.04 56.46 134.36 62.01 135.23 51.74 127.27 45.2 137.31 42.86 141.07 33.27 146.39 42.09 156.68 42.7 149.94 50.49 152.53 60.46"/><path class="cls-3" d="M393.27,166.3a4.22,4.22,0,0,0,.49-.45l21.81-23.09a4.08,4.08,0,0,0,1.11-2.94,4.2,4.2,0,0,0-1.32-2.91,6.17,6.17,0,0,0-3.48-1.77A4,4,0,0,0,409,136.4l-16.08,17a3.42,3.42,0,0,0,4.95,4.73l11.65-12.32-.81-.77-11.64,12.32a2.29,2.29,0,0,1-3.23.05,2.31,2.31,0,0,1-.12-3.24l16.09-17a2.88,2.88,0,0,1,2.1-.92,5.25,5.25,0,0,1,2.69,1.45,3.1,3.1,0,0,1,1,2.13,3,3,0,0,1-.81,2.16L393,165.07c-.88.94-2.36,1.89-5-.62a19.63,19.63,0,0,1-3-3.64,2.05,2.05,0,0,1,.64-2.14l13.17-13.94L398,144l-13.17,13.94a3.13,3.13,0,0,0-.88,3.23,18.56,18.56,0,0,0,3.3,4.13C389.94,167.86,392,167.38,393.27,166.3Z"/><path class="cls-3" d="M75.42,39.21a4.27,4.27,0,0,0-.58-.33L46.36,24.83a4.05,4.05,0,0,0-3.15-.19,4.26,4.26,0,0,0-2.39,2.12,6.19,6.19,0,0,0-.66,3.84A4,4,0,0,0,42.21,33l21,10.35a3.43,3.43,0,0,0,4.55-1.58,3.38,3.38,0,0,0-1.48-4.55l-15.2-7.5-.5,1,15.2,7.5a2.31,2.31,0,0,1-2.07,4.13L42.71,32a2.93,2.93,0,0,1-1.5-1.74,5.25,5.25,0,0,1,.59-3,3.12,3.12,0,0,1,1.76-1.55,3,3,0,0,1,2.3.14L74.34,39.88c1.15.57,2.5,1.7.87,4.95a19.33,19.33,0,0,1-2.59,3.94,2.07,2.07,0,0,1-2.24,0L53.18,40.3l-.5,1,17.2,8.49a3.15,3.15,0,0,0,3.34-.1,18.76,18.76,0,0,0,3-4.37C77.88,41.94,76.84,40.15,75.42,39.21Z"/><path class="cls-2" d="M152.37,122.76a16.12,16.12,0,0,1-6.54-4.56c-.67,1.13-1.36,2.25-2,3.4l6,4.16A30.7,30.7,0,0,0,152.37,122.76Z"/><path class="cls-2" d="M150.31,126.19A31.11,31.11,0,0,0,153,123l0-.05c-.41-.13-.81-.28-1.2-.44a30.84,30.84,0,0,1-2,2.44l-5.15-3.54c.35-.62.72-1.23,1.08-1.83l.55-.93c-.29-.32-.58-.64-.85-1l-.75,1.28c-.46.76-.93,1.55-1.38,2.34l-.27.49,6.93,4.76Z"/><path class="cls-2" d="M147.61,127.76l-4.84-3.32c-3.5,2.93-6.74,6.35-10.44,9.15.73,4.83-1.3,9.17-2.41,13.64,1-1.64,2.25-3.23,3.43-4.77a45.66,45.66,0,0,0,4.58-6.79,2.53,2.53,0,0,1-.27-.46l0-.07,0-.07a2.49,2.49,0,0,1,.39-1.74,2.15,2.15,0,0,1,2.55-.48,2,2,0,0,1,.88,1.39,1.8,1.8,0,0,1-.62,1.46l-.06.05a2.47,2.47,0,0,1-1.78.6,47,47,0,0,1-4.65,6.86,59,59,0,0,0-3.57,5l-.52-.33h0l.61.42c3.76-2.46,7.14-6.08,11.7-7.1C144.56,137,146,132.28,147.61,127.76Z"/><path class="cls-2" d="M201.18,56.78a16.33,16.33,0,0,1-10.55-8c-15.28,22.42-30.38,45-45.91,67.2,1.78,3.89,5.87,7,10.08,6.93C169.47,100.32,186.33,79.23,201.18,56.78Z"/><path class="cls-2" d="M229.68,17.35,202.12,57.48a27.53,27.53,0,0,1-12.7-8.73c7-9.74,13.37-19.9,20.56-29.5,2.49-3.63,4.44-7.33,7.14-10.82,4.81.33,8.43,3.71,11.84,6.94.47.62,1.28,1.18.72,2Z"/><path class="cls-4" d="M203.38,67.09c5.47-13.79,15-25.2,24.19-36.22q1.68-2,3.35-4l-4.79-3.29,2-2.68,8.15,5.63-1.67,2.1c-1.28,1.55-3.27,3.27-4.56,4.82-9.14,10.94-17.87,22.07-23.26,35.65Z"/><path class="cls-2" d="M142,123a9.37,9.37,0,0,0,7.25,5l1.53-2.22a35.07,35.07,0,0,1-7.26-5L142,123Z"/><path class="cls-2" d="M157,98.39C127.48,58.16,98.1,11.25,98.1,11.25S61,38.44,31.74,58.15c-6,9.48-14.26,34.74-15.84,45.46,26,48.42,86.53,115.64,86.53,115.64s60.75-34.36,99.23-69c-9.64-7.49-22.81-23-36.53-41"/><path class="cls-2" d="M31.75,58.16s8.31,25.72,14.1,32.74L15.9,103.6"/><path class="cls-2" d="M306.71,40c-1.65,11-2.42,19.53-4.65,30.4a15.73,15.73,0,0,0,4.16,4.57l.16.48c10.9,8.83,23.95,12.68,37.05,14.68,11.48,2,23.18,2.62,34.46-1.67A19.79,19.79,0,0,0,386,83.87c2.09-11.2,3.54-21,5.23-32.28"/><path class="cls-2" d="M343.81,57.32c-11.24-6.58-22.56-12.7-34.33-18.89-3.63-1.94-7.33-3.43-11-5.37-4.77-2.12-9.49-4.46-14.29-6.34a581.34,581.34,0,0,1,70.1-11c14.25,6.57,27.53,13.45,42.6,19.22.23,0,.61.56.84.59,7.66,2.79,14.65,5.48,21.86,8.2-25,6.34-50.35,10.33-75.82,13.61Z"/><path class="cls-2" d="M420.34,43.81l-.7,2.71s-51.05,10.87-76.51,14.14l-1-1.26c-11.25-6.57-22.56-12.69-34.33-18.88-3.63-1.94-7.34-3.43-11-5.38L282.55,28.8l.71-2"/><path class="cls-3" d="M380,95.84a25.61,25.61,0,0,1-2.5-11.61,39.36,39.36,0,0,1,.61-6.22,30.76,30.76,0,0,1,2.15-5.91c.81-2,1.56-4,2.23-6.09a24.11,24.11,0,0,0,1.41-5.65c.21-3.21,0-7.11-2.31-9.55a.53.53,0,0,0-.27-.15c-1.34-.65-2.7-1.24-4-1.81a66.1,66.1,0,0,1-6.16-2.92l-14.1-7.71a7.28,7.28,0,0,0-1.19-.43,6.26,6.26,0,0,1-1-.35,15.14,15.14,0,0,0-4-1.74l-.28-.09-.35,1.08.28.1a13.65,13.65,0,0,1,3.68,1.61l.07,0a7.07,7.07,0,0,0,1.19.44,6.22,6.22,0,0,1,1,.35l14.07,7.7a66.81,66.81,0,0,0,6.26,3c1.33.58,2.71,1.17,4.05,1.82a8.16,8.16,0,0,1,1.78,5.2,17.16,17.16,0,0,1-.58,6.5c-.59,2-1.26,4-2,5.91s-1.53,3.56-2.22,5.37A28.65,28.65,0,0,0,376.4,86,26.3,26.3,0,0,0,379,96.26C379.28,96.92,380.35,96.51,380,95.84Z"/><path class="cls-2" d="M387.16,115.48c-1,1.7-3.57,2.23-5.41,2.18-.23,0-.75.35-1,.31-2.26-.34-5.14.37-6.67-1.71.57-5.23.2-10.37,1-15.57a6.17,6.17,0,0,1,2.07-2.92c1.79-1.11,4.22-1.9,5.78,0a9.91,9.91,0,0,1,1.6,4.64c.23,3,.5,5.85.73,8.89a8.86,8.86,0,0,0,1.89,4.22Z"/><line class="cls-2" x1="378.33" y1="101.24" x2="376.79" y2="117.72"/><line class="cls-2" x1="380.43" y1="104.09" x2="380.77" y2="117.97"/><path class="cls-2" d="M382.15,100.9s1.79,14.82,1.38,17.49"/><line class="cls-2" x1="343.81" y1="57.32" x2="343.13" y2="60.66"/><path class="cls-2" d="M234.7,199.77a15.06,15.06,0,0,0,1.15,3l-6-1.56Z"/><path class="cls-2" d="M249.36,194.88c-1.5,1-1.27,2.77,1.74,3.17-3.57,1.5-3.63,4.17.17,5.47-3.52.44-2.46,2.87-1.64,3.31l-13.78-4a15.06,15.06,0,0,1-1.15-3Z"/><path class="cls-2" d="M250,197.81a6.6,6.6,0,0,0,1.09.24c-3.57,1.5-3.63,4.17.17,5.47-3.52.44-2.46,2.87-1.64,3.31l118.25-2.64-.07-3.28-.13-5.47-.07-3.2-118.25,2.64C248.06,195.77,248.06,197.18,250,197.81Z"/><line class="cls-2" x1="251.27" y1="203.52" x2="367.81" y2="200.91"/><line class="cls-2" x1="250.44" y1="198.26" x2="366.97" y2="195.65"/><circle class="cls-4" cx="194.36" cy="195.62" r="16.09" transform="translate(-38.88 48.5) rotate(-12.94)"/><path class="cls-4" d="M136.31,19.06a3.36,3.36,0,1,0,3.35-3.36A3.35,3.35,0,0,0,136.31,19.06Z"/><circle class="cls-4" cx="219.82" cy="118.39" r="14.64" transform="translate(28.34 278.62) rotate(-68.23)"/><path class="cls-4" d="M198.55,148.48a3.87,3.87,0,1,0,3.87-3.87A3.87,3.87,0,0,0,198.55,148.48Z"/><path class="cls-4" d="M15.9,164.51a5.66,5.66,0,1,0,5.65-5.65A5.66,5.66,0,0,0,15.9,164.51Z"/><circle class="cls-4" cx="318.93" cy="120.78" r="6.88"/><path class="cls-4" d="M390.32,206.83a6.49,6.49,0,1,0,6.49-6.49A6.5,6.5,0,0,0,390.32,206.83Z"/><g class="cls-5"><image width="4032" height="1790" transform="translate(409.84 -8) scale(0.28)" xlink:href="G:%5CTrabajos%5CMARISCAL%20CASTILLA%5Cfotografias%5C20190621_mc_primera_sesion%5CFotos_Editadas%5C20190621_mariscal_castilla_073.jpg"/></g></g></svg>