<svg id="Capa_1" data-name="Capa 1" xmlns="http://www.w3.org/2000/svg" viewBox="0 0 239.26 123.3"><defs><style>.cls-1,.cls-3,.cls-4,.cls-5{fill:none;stroke:#000;stroke-miterlimit:10;}.cls-1,.cls-2{opacity:0.5;}.cls-2,.cls-3,.cls-4,.cls-5{isolation:isolate;}.cls-3,.cls-4,.cls-5{font-size:18px;font-family:Arial-BoldMT, Arial;font-weight:700;}.cls-4{letter-spacing:-0.04em;}.cls-5{letter-spacing:-0.06em;}</style></defs><title>logo2</title><path class="cls-1" d="M.09,46.4H18.45c.15,2.52,2.91,5.51,5,6.76a12.82,12.82,0,0,0,6.78,1.6,11.5,11.5,0,0,0,5.95-1.3,4,4,0,0,0,2.16-3.58q0-3.65-9.06-5.92l-2.78-.68q-7.44-1.92-11.82-3.49a29.19,29.19,0,0,1-6.4-2.93A18,18,0,0,1,2.47,30.2,19.43,19.43,0,0,1,.53,21.37q0-10,7.52-15.68T28.73,0Q41.68,0,49.09,5.44t8.39,15.61H37a6.4,6.4,0,0,0-2.62-4.42,10.61,10.61,0,0,0-6-1.46,9.25,9.25,0,0,0-5.15,1.14,3.87,3.87,0,0,0-1.69,3.46q0,3.33,8.84,5.56c.52.15.91.26,1.19.32l3.87,1q11.7,3,15.3,5.38a19.39,19.39,0,0,1,6.52,6.74,18.48,18.48,0,0,1,2,8.93q0,11.11-7.77,17.09t-22.25,6q-13.35,0-21.16-6A20.43,20.43,0,0,1,.09,46.4Z" transform="translate(0.52 0.5)"/><path class="cls-1" d="M131.83,69.36V18.44H111.11V2.26h60.16V18.44H150.49V69.36Z" transform="translate(0.52 0.5)"/><path class="cls-1" d="M175.82,69.36V2.26h18.53V25h25.53V2.26h18.37v67.1H219.88v-26H194.35v26Z" transform="translate(0.52 0.5)"/><path class="cls-1" d="M54.91,68.73H73.66V54.64a5.54,5.54,0,0,1,5.53-5.53h24.47a5.55,5.55,0,0,1,5.53,5.53V68.73h18.75L91.43,1.62Zm45.2-29.61a8.69,8.69,0,1,1-8.7-8.68h0A8.68,8.68,0,0,1,100.11,39.12Z" transform="translate(0.52 0.5)"/><g class="cls-2"><text class="cls-3" transform="translate(3.94 94.42)">Servicio de</text><text class="cls-4" transform="translate(99.99 94.42)"> </text><text class="cls-3" transform="translate(104.32 94.42)">Administración</text><text class="cls-5" transform="translate(20.11 116.02)">T</text><text class="cls-3" transform="translate(30.11 116.02)">ributaria de Huancayo</text></g></svg>