<svg xmlns="http://www.w3.org/2000/svg" xmlns:xlink="http://www.w3.org/1999/xlink" viewBox="0 0 108.63 124.38"><defs><style>.cls-1{fill:url(#Degradado_sin_nombre_44);}.cls-2{fill:none;}.cls-2,.cls-3{stroke:#000;stroke-miterlimit:10;}.cls-3{fill:#dab002;}.cls-4{fill:#fff;}.cls-5{fill:#c3251c;}.cls-6{fill:#e1ac00;}.cls-7{font-size:11px;font-family:BellMTBold, Bell MT;}</style><linearGradient id="Degradado_sin_nombre_44" x1="7.61" y1="68.8" x2="96.29" y2="50.97" gradientUnits="userSpaceOnUse"><stop offset="0" stop-color="#bd350f"/><stop offset="1" stop-color="#a93311"/></linearGradient></defs><title>Wireframes-MC-V-II</title><g id="Capa_1" data-name="Capa 1"><path class="cls-1" d="M104.88,66.59c-3.2-8.44-9.78-18.29,1.25-39.34a3.14,3.14,0,0,0-.34-3.42L88.25,2.39a2.83,2.83,0,0,0-4.14-.32C80,5.83,69.84,12.12,56,1.4a2.86,2.86,0,0,0-3.61.06C48.11,5,36.59,12.36,24.16,1.84a2.84,2.84,0,0,0-4.06.38L2.54,23.61a3.13,3.13,0,0,0-.39,3.33c2.56,5.21,9.16,21.3,2.34,37-8.76,20.2-3,43.85,26,52.18a2.57,2.57,0,0,0,.38.08c1.77.27,15.87,2.54,21.57,7.18a2.83,2.83,0,0,0,3.59.07,31.44,31.44,0,0,1,15.64-6.3c12.07-1.64,26.7-8.19,32.23-19.46S108.16,75.21,104.88,66.59Z"/><polygon class="cls-2" points="28.65 54.08 29.44 54.08 29.44 54.09 17.69 54.09 28.65 54.08"/><path class="cls-3" d="M99.44,66.29c-4-7.47-9.06-17.47,2-38.14L82.77,4.44s-11.26,15.62-28.63,0c0,0-13.88,15.45-28.62,0L7,27.92S20.06,47.81,9.87,63.87s-2.14,42.69,23.37,48.42c0,0,16.63,2.48,20.66,8a.34.34,0,0,0,.54,0c1.2-1.26,6.1-5.84,15.36-7.14,10.77-1.52,24.76-7.53,29.69-18S103.46,73.76,99.44,66.29ZM97.87,84.72c-1.93,16.86-24.51,21.72-24.51,21.72-14.4,2-19.15,7.09-19.15,7.09-1.15-1.21-9.08-5.71-17.21-6.7a31.7,31.7,0,0,1-13.65-5C1.42,89.17,12.39,67.34,14.54,64s3.15-9.89,3.15-9.89a38.07,38.07,0,0,0-5.6-25.74L26.43,9.87s14.49,11.29,27.78-.59c0,0,13.92,11.59,27.78.66L96.4,28.2s-9.22,16.12-5.49,25.85c-1,2.34,3.6,11.14,3.6,11.14A24.73,24.73,0,0,1,97.87,84.72Z"/><path class="cls-4" d="M96.4,28.2,82,9.94c-13.86,10.93-27.78-.66-27.78-.66-13.29,11.88-27.78.59-27.78.59L12.09,28.35a38.07,38.07,0,0,1,5.6,25.74h11V47.54l6.46-3.35,5.11,5.36,5-10.31,7.25-1,2.93,4.89V54.07H59V38.25l21,12.54v3.27H90.91C87.18,44.32,96.4,28.2,96.4,28.2ZM34.69,35.66H29.28V20h5.41ZM60,24H54.25v2.14h5.1v2.75H54.21v2.53H60v3.41H50.59V20.92H60Zm23.15-1.89V26.7A2.36,2.36,0,0,1,81,29.34H76.57v4.89H73.42V19.77h7.06C83.56,19.77,83.13,22.06,83.13,22.06Z"/><rect class="cls-2" x="45.86" y="54.07" width="0.37" height="0.01"/><path class="cls-5" d="M97.87,84.72c-1.93,16.86-24.51,21.72-24.51,21.72-14.4,2-19.15,7.09-19.15,7.09-1.15-1.21-9.08-5.71-17.21-6.7a31.7,31.7,0,0,1-13.65-5C1.42,89.17,12.39,67.34,14.54,64s3.15-9.89,3.15-9.89h11V80.21l2.89,5.28,7,3V62.44l5.88,4.84.89-1.37V87l2.94,5.44,7.08,3.08V54.09H59V92l3.67,1.87L80.08,83.34v-8l-3.93-2.09-5,3.14V57l9,5.28V54.09H90.31l.6,0c-1,2.34,3.6,11.14,3.6,11.14A24.73,24.73,0,0,1,97.87,84.72Z"/><rect class="cls-5" x="29.28" y="19.99" width="5.41" height="15.67"/><polygon class="cls-5" points="54.24 23.95 54.24 26.09 59.35 26.09 59.35 28.84 54.21 28.84 54.21 31.37 59.98 31.37 59.98 34.78 50.59 34.78 50.59 20.92 59.98 20.92 59.98 23.95 54.24 23.95"/><path class="cls-5" d="M80.48,19.77H73.42V34.23h3.15V29.34H81a2.36,2.36,0,0,0,2.1-2.64V22.06S83.56,19.77,80.48,19.77Zm-.8,5.52h-3V23.64h3Z"/><rect class="cls-4" x="76.67" y="23.64" width="3.01" height="1.65"/><polygon class="cls-6" points="52.06 39.24 52.06 90 46.23 87.36 46.23 53.43 45.87 54.07 45.86 54.09 41.56 61.67 35.21 56.23 35.21 82.96 29.44 80.15 29.44 47.98 35.11 45.12 40.43 50.7 45.76 40.01 52.06 39.24"/><path d="M46.23,53.43l-.36.64v0h.37v-.66Zm-16.79.65h0Z"/><polygon points="55.37 43.14 55.37 95.55 48.28 92.47 45.34 87.03 45.34 65.91 44.45 67.28 38.57 62.45 38.57 88.51 31.54 85.49 28.65 80.21 28.65 54.09 29.44 54.09 29.44 80.15 35.21 82.96 35.21 56.23 41.56 61.67 45.86 54.09 46.23 54.09 46.23 87.36 52.06 90 52.06 39.24 45.76 40.01 40.43 50.7 35.11 45.12 29.44 47.98 29.44 54.08 28.65 54.08 28.65 47.54 35.11 44.19 40.22 49.55 45.18 39.24 52.43 38.25 55.37 43.14"/><polygon points="80.08 50.79 80.08 62.28 71.11 57 71.11 76.36 76.15 73.22 80.08 75.31 80.08 83.34 62.71 93.85 59.04 91.98 59.04 54.09 59.88 54.09 59.88 91.03 75.87 81.55 75.87 74.43 66.84 80.01 66.84 53.5 67.8 54.09 75.87 59 75.87 49.25 59.88 39.6 59.88 54.07 59.04 54.07 59.04 38.25 80.08 50.79"/><polygon class="cls-6" points="66.84 80.01 75.87 74.43 75.87 81.55 59.88 91.03 59.88 39.6 75.87 49.25 75.87 59 67.8 54.09 67.77 54.07 67.77 54.07 66.84 53.5 66.84 80.01"/><text class="cls-7" transform="translate(23.72 98.79) rotate(14.44) scale(0.95 1)">H</text><text class="cls-7" transform="translate(31.88 100.87) rotate(10.22) scale(0.95 1)">U</text><text class="cls-7" transform="translate(39.31 102.21) rotate(6.68) scale(0.95 1)">A</text><text class="cls-7" transform="matrix(0.95, 0.04, -0.04, 1, 46.94, 103.11)">N</text><text class="cls-7" transform="matrix(0.95, -0.04, 0.04, 1, 55.28, 103.43)">C</text><text class="cls-7" transform="translate(62.72 103.12) rotate(-7.71) scale(0.95 1)">A</text><text class="cls-7" transform="translate(68.94 102.34) rotate(-12.91) scale(0.95 1)">Y</text><text class="cls-7" transform="translate(76.64 100.58) rotate(-20.62) scale(0.95 1)">O</text></g></svg>