<svg xmlns="http://www.w3.org/2000/svg" viewBox="0 0 215.44 36.72"><defs><style>.cls-1{fill:#cfcfcf;}.cls-2{fill:#fff;}</style></defs><title>Wireframes-MC-V-II</title><g id="Capa_1" data-name="Capa 1"><path class="cls-1" d="M3.15,3.73v8H.7v-8Z"/><path class="cls-1" d="M11.39,11.73h-2L7.2,8.2a13.34,13.34,0,0,1-.85-1.66,5.56,5.56,0,0,1,.19,1.32v3.87h-2v-8H6.87L8.73,6.66A10.65,10.65,0,0,1,9.57,8.2a12.23,12.23,0,0,1-.18-2.1V3.73h2Z"/><path class="cls-1" d="M12,9.41,14.23,9a1.36,1.36,0,0,0,1.48,1c.62,0,.93-.16.93-.49a.46.46,0,0,0-.22-.4,2.32,2.32,0,0,0-.76-.26A5.21,5.21,0,0,1,13,7.77a2.17,2.17,0,0,1-.6-1.53,2.37,2.37,0,0,1,.86-1.88,3.63,3.63,0,0,1,2.47-.75,3.1,3.1,0,0,1,3.22,2l-2,.62a1.24,1.24,0,0,0-1.28-.81c-.54,0-.8.17-.8.5a.41.41,0,0,0,.18.35,2.14,2.14,0,0,0,.7.23,13.66,13.66,0,0,1,2,.54,2.17,2.17,0,0,1,1,.8,2.21,2.21,0,0,1,.4,1.33,2.38,2.38,0,0,1-1,2,4.17,4.17,0,0,1-2.59.75Q12.63,11.85,12,9.41Z"/><path class="cls-1" d="M23.45,5.65v6.08H21.12V5.65H19.47V3.73h5.64V5.65Z"/><path class="cls-1" d="M28.26,3.73v8H25.81v-8Z"/><path class="cls-1" d="M32.94,5.65v6.08H30.62V5.65H29V3.73H34.6V5.65Z"/><path class="cls-1" d="M41.78,3.73V9a2.49,2.49,0,0,1-.89,2.16,3.83,3.83,0,0,1-2.33.66,4.21,4.21,0,0,1-2.43-.63,2.32,2.32,0,0,1-.91-2.06V3.73h2.49V8.87a1.24,1.24,0,0,0,.24.84,1,1,0,0,0,.78.26,1.28,1.28,0,0,0,.73-.19.73.73,0,0,0,.33-.43,4.67,4.67,0,0,0,.06-.94V3.73Z"/><path class="cls-1" d="M47.5,8.68l2.24.13a3.28,3.28,0,0,1-1.09,2.26,3.73,3.73,0,0,1-4.91-.3,4.17,4.17,0,0,1-1-3,4.65,4.65,0,0,1,.95-3,3.72,3.72,0,0,1,5.09-.27,3.57,3.57,0,0,1,1,2.33l-2.29.12a1.75,1.75,0,0,0-.31-1.16.91.91,0,0,0-.72-.36c-.77,0-1.16.78-1.16,2.34a3.58,3.58,0,0,0,.3,1.77,1,1,0,0,0,.85.47C47.06,10,47.42,9.56,47.5,8.68Z"/><path class="cls-1" d="M53.09,3.73v8H50.64v-8Z"/><path class="cls-1" d="M57.94,11.85a3.62,3.62,0,0,1-2.75-1.12,4.14,4.14,0,0,1-1.06-3,4.33,4.33,0,0,1,1-3A3.52,3.52,0,0,1,58,3.61a3.57,3.57,0,0,1,2.72,1.1,4.07,4.07,0,0,1,1.05,2.94,4.29,4.29,0,0,1-1.06,3A3.55,3.55,0,0,1,57.94,11.85Zm0-1.81a1,1,0,0,0,.9-.55,5,5,0,0,0,.27-2c0-1.39-.37-2.09-1.12-2.09s-1.21.8-1.21,2.38S57.16,10,57.93,10Zm-1.07-7.8L59.54.93,60,2.07l-2.81,1Z"/><path class="cls-1" d="M69.62,11.73h-2L65.43,8.2a13.34,13.34,0,0,1-.85-1.66,5.56,5.56,0,0,1,.19,1.32v3.87h-2v-8H65.1L67,6.66a11.92,11.92,0,0,1,.85,1.54,11.31,11.31,0,0,1-.19-2.1V3.73h2Z"/><path class="cls-1" d="M80,9.82v1.91H74v-8h6V5.58H76.42V6.74h2.92V8.51H76.42V9.82Z"/><path class="cls-1" d="M81,11.73v-8h3.09a3.71,3.71,0,0,1,3,1.2,4.13,4.13,0,0,1,1,2.76A4,4,0,0,1,87,10.61a3.73,3.73,0,0,1-2.79,1.12Zm2.46-1.84h.63a1.24,1.24,0,0,0,1-.59,2.74,2.74,0,0,0,.42-1.61,2.89,2.89,0,0,0-.37-1.51,1.19,1.19,0,0,0-1.08-.63h-.63Z"/><path class="cls-1" d="M95.64,3.73V9a2.5,2.5,0,0,1-.9,2.16,3.81,3.81,0,0,1-2.33.66A4.2,4.2,0,0,1,90,11.22a2.3,2.3,0,0,1-.92-2.06V3.73h2.5V8.87a1.24,1.24,0,0,0,.24.84,1,1,0,0,0,.77.26,1.26,1.26,0,0,0,.73-.19.75.75,0,0,0,.34-.43,4.93,4.93,0,0,0,0-.94V3.73Z"/><path class="cls-1" d="M101.35,8.68l2.24.13a3.27,3.27,0,0,1-1.08,2.26,3.75,3.75,0,0,1-4.92-.3,4.22,4.22,0,0,1-1-3,4.65,4.65,0,0,1,1-3,3.72,3.72,0,0,1,5.09-.27,3.57,3.57,0,0,1,1,2.33l-2.29.12a1.81,1.81,0,0,0-.3-1.16.94.94,0,0,0-.73-.36c-.77,0-1.16.78-1.16,2.34a3.58,3.58,0,0,0,.3,1.77,1,1,0,0,0,.85.47C100.91,10,101.27,9.56,101.35,8.68Z"/><path class="cls-1" d="M108.77,11.73l-.46-1.58h-2.14l-.48,1.58h-2l2.47-8h2.59l2.51,8Zm-2.18-3.32h1.29l-.64-2.32Z"/><path class="cls-1" d="M114.84,5.65v6.08h-2.33V5.65h-1.66V3.73h5.65V5.65Z"/><path class="cls-1" d="M119.65,3.73v8h-2.46v-8Z"/><path class="cls-1" d="M128,3.73l-2.48,8H123l-2.59-8H123l1.27,4.36c.09.26.16.51.23.76L126,3.73Z"/><path class="cls-1" d="M132.69,11.73l-.45-1.58H130.1l-.48,1.58h-2l2.47-8h2.6l2.51,8Zm-2.18-3.32h1.3l-.65-2.32Z"/><path class="cls-2" d="M17.68,20.45V35.51H13.39V24.74L10.61,35.51H7.67L4.78,24.74V35.51H1.31V20.45h6l2.19,8,2.08-8Z"/><path class="cls-2" d="M28.61,35.51l-.85-3h-4l-.91,3H19.07l4.65-15.06h4.89l4.72,15.06Zm-4.1-6.26H27l-1.22-4.36Z"/><path class="cls-2" d="M48.12,35.51H43l-2.2-5.76H39.34v5.76H34.72V20.45h7.86a6.1,6.1,0,0,1,4.05,1.22,4,4,0,0,1,1.44,3.22,4.91,4.91,0,0,1-.53,2.3A4.56,4.56,0,0,1,45.4,29Zm-8.78-9h2a2.44,2.44,0,0,0,1.4-.36,1.21,1.21,0,0,0,.53-1.07c0-1-.59-1.45-1.77-1.45H39.34Z"/><path class="cls-2" d="M54.93,20.45V35.51H50.3V20.45Z"/><path class="cls-2" d="M56,31.15l4.29-.77a2.55,2.55,0,0,0,2.78,1.82q1.74,0,1.74-.93a.85.85,0,0,0-.4-.75A4.37,4.37,0,0,0,63,30q-4-.76-5.09-2a4.09,4.09,0,0,1-1.12-2.88,4.52,4.52,0,0,1,1.61-3.54A6.87,6.87,0,0,1,63,20.22q4.6,0,6.08,3.69l-3.82,1.16a2.36,2.36,0,0,0-2.42-1.51c-1,0-1.51.31-1.51.94a.73.73,0,0,0,.34.65,4.36,4.36,0,0,0,1.32.44,27.69,27.69,0,0,1,3.84,1,4.24,4.24,0,0,1,2.66,4,4.45,4.45,0,0,1-1.85,3.7,7.78,7.78,0,0,1-4.87,1.42Q57.29,35.74,56,31.15Z"/><path class="cls-2" d="M79.56,29.76l4.23.26a6.14,6.14,0,0,1-2.05,4.24,7,7,0,0,1-9.25-.55,7.89,7.89,0,0,1-1.89-5.6,8.74,8.74,0,0,1,1.79-5.72A7,7,0,0,1,82,21.87a6.85,6.85,0,0,1,1.82,4.39l-4.32.24a3.32,3.32,0,0,0-.58-2.19,1.73,1.73,0,0,0-1.36-.67q-2.18,0-2.18,4.39a6.73,6.73,0,0,0,.57,3.34,1.78,1.78,0,0,0,1.59.88C78.73,32.25,79.41,31.42,79.56,29.76Z"/><path class="cls-2" d="M93.52,35.51l-.85-3h-4l-.91,3H84l4.65-15.06h4.89l4.72,15.06Zm-4.1-6.26h2.44l-1.22-4.36Z"/><path class="cls-2" d="M110.18,31.81v3.7H99.63V20.45h4.62V31.81Z"/><path class="cls-2" d="M125.73,29.76,130,30a6.13,6.13,0,0,1-2,4.24,7,7,0,0,1-9.25-.55,7.89,7.89,0,0,1-1.89-5.6,8.74,8.74,0,0,1,1.79-5.72,7,7,0,0,1,9.58-.52A6.85,6.85,0,0,1,130,26.26l-4.31.24a3.32,3.32,0,0,0-.58-2.19,1.75,1.75,0,0,0-1.36-.67q-2.19,0-2.19,4.39a6.73,6.73,0,0,0,.57,3.34,1.79,1.79,0,0,0,1.6.88C124.9,32.25,125.58,31.42,125.73,29.76Z"/><path class="cls-2" d="M139.69,35.51l-.85-3h-4l-.91,3h-3.75l4.65-15.06h4.89l4.72,15.06Zm-4.1-6.26H138l-1.22-4.36Z"/><path class="cls-2" d="M144.24,31.15l4.29-.77a2.55,2.55,0,0,0,2.78,1.82q1.74,0,1.74-.93a.85.85,0,0,0-.4-.75,4.37,4.37,0,0,0-1.44-.48q-4-.76-5.08-2A4.1,4.1,0,0,1,145,25.17a4.5,4.5,0,0,1,1.62-3.54,6.84,6.84,0,0,1,4.65-1.41q4.59,0,6.08,3.69l-3.83,1.16a2.35,2.35,0,0,0-2.42-1.51c-1,0-1.51.31-1.51.94a.73.73,0,0,0,.34.65,4.34,4.34,0,0,0,1.33.44,28.52,28.52,0,0,1,3.84,1,4.25,4.25,0,0,1,2.65,4,4.42,4.42,0,0,1-1.85,3.7A7.77,7.77,0,0,1,151,35.74Q145.54,35.74,144.24,31.15Z"/><path class="cls-2" d="M165.88,24.06V35.51H161.5V24.06h-3.12V20.45H169v3.61Z"/><path class="cls-2" d="M174.94,20.45V35.51h-4.62V20.45Z"/><path class="cls-2" d="M188.12,31.81v3.7H177.57V20.45h4.62V31.81Z"/><path class="cls-2" d="M200.29,31.81v3.7H189.74V20.45h4.62V31.81Z"/><path class="cls-2" d="M210.21,35.51l-.85-3h-4l-.9,3h-3.76l4.65-15.06h4.89l4.72,15.06Zm-4.1-6.26h2.43l-1.22-4.36Z"/></g></svg>