<svg xmlns="http://www.w3.org/2000/svg" viewBox="0 0 238.23 122.3"><title>Recurso 5</title><g id="Capa_2" data-name="Capa 2"><g id="Capa_1-2" data-name="Capa 1"><path d="M.07,46.4H18.43c.15,2.52,2.91,5.51,5,6.76a12.88,12.88,0,0,0,6.78,1.6,11.52,11.52,0,0,0,5.95-1.3,4,4,0,0,0,2.16-3.58q0-3.65-9.06-5.92l-2.78-.68q-7.43-1.92-11.82-3.49a29.48,29.48,0,0,1-6.4-2.93A18.1,18.1,0,0,1,2.45,30.2,19.47,19.47,0,0,1,.51,21.37q0-10,7.52-15.68T28.71,0Q41.66,0,49.07,5.44t8.39,15.61H37a6.35,6.35,0,0,0-2.62-4.42,10.57,10.57,0,0,0-6-1.46,9.29,9.29,0,0,0-5.15,1.14,3.88,3.88,0,0,0-1.69,3.46q0,3.33,8.84,5.56c.52.15.91.26,1.19.32l3.87,1q11.7,3,15.3,5.38a19.35,19.35,0,0,1,6.52,6.74,18.43,18.43,0,0,1,2.05,8.93q0,11.12-7.77,17.09t-22.25,6q-13.35,0-21.16-6A20.45,20.45,0,0,1,.07,46.4Z" fill="#1d4679"/><path d="M131.81,69.36V18.44H111.09V2.26h60.16V18.44H150.47V69.36Z" fill="#1d4679"/><path d="M175.8,69.36V2.26h18.53V25h25.53V2.26h18.37v67.1H219.86v-26H194.33v26Z" fill="#1d4679"/><path d="M54.89,68.73H73.64V54.64a5.54,5.54,0,0,1,5.53-5.53h24.47a5.54,5.54,0,0,1,5.53,5.53V68.73h18.75L91.41,1.62Zm45.2-29.61a8.69,8.69,0,1,1-8.68-8.68A8.68,8.68,0,0,1,100.09,39.12Z" fill="#00a959"/><text transform="translate(3.41 93.92)" font-size="18" fill="#1c2541" font-family="Arial-BoldMT, Arial" font-weight="700">Servicio de<tspan x="96.05" y="0" letter-spacing="-0.04em"> </tspan><tspan x="100.38" y="0">Administración</tspan><tspan x="16.17" y="21.6" letter-spacing="-0.06em">T</tspan><tspan x="26.17" y="21.6">ributaria de Huancayo</tspan></text></g></g></svg>